<?xml version="1.0" encoding="iso-8859-1"?>
<svg fill="#000000" height="800px" width="800px" version="1.1" id="Capa_1" xmlns="http://www.w3.org/2000/svg" xmlns:xlink="http://www.w3.org/1999/xlink" xml:space="preserve">
	<symbol id="sandwich" viewBox="0 0 51 51">
		<g>
			<path d="M49,34.379c-0.552,0-1,0.447-1,1c0,1.103-0.897,2-2,2s-2-0.897-2-2h-2c0,1.103-0.897,2-2,2s-2-0.897-2-2h-2
				c0,1.103-0.897,2-2,2s-2-0.897-2-2h-2c0,1.103-0.897,2-2,2s-2-0.897-2-2h-2c0,1.103-0.897,2-2,2s-2-0.897-2-2h-2
				c0,1.103-0.897,2-2,2s-2-0.897-2-2h-2c0,1.103-0.897,2-2,2s-2-0.897-2-2H6c0,1.103-0.897,2-2,2s-2-0.897-2-2c0-0.553-0.448-1-1-1
				s-1,0.447-1,1c0,2.206,1.794,4,4,4c1.193,0,2.267-0.525,3-1.357c0.733,0.832,1.807,1.357,3,1.357s2.267-0.525,3-1.357
				c0.733,0.832,1.807,1.357,3,1.357s2.267-0.525,3-1.357c0.733,0.832,1.807,1.357,3,1.357s2.267-0.525,3-1.357
				c0.733,0.832,1.807,1.357,3,1.357s2.267-0.525,3-1.357c0.733,0.832,1.807,1.357,3,1.357s2.267-0.525,3-1.357
				c0.733,0.832,1.807,1.357,3,1.357s2.267-0.525,3-1.357c0.733,0.832,1.807,1.357,3,1.357c2.206,0,4-1.794,4-4
				C50,34.826,49.552,34.379,49,34.379z"/>
			<path d="M48,26.829v-4.729c0.004-0.034,0.02-0.064,0.02-0.099c0-0.337-0.167-0.635-0.422-0.816L26.707,0.293
				c-0.391-0.391-1.023-0.391-1.414,0L4.294,21.292c-0.001,0.001-0.002,0.003-0.003,0.004c-0.083,0.083-0.143,0.181-0.191,0.283
				c-0.014,0.031-0.022,0.063-0.034,0.095c-0.03,0.086-0.048,0.173-0.053,0.264C4.011,21.96,4,21.978,4,22v3.222
				c-2.451,0.706-4,2.321-4,4.278C0,32.065,3.439,34,8,34c1.104,0,2.14-0.115,3.08-0.324L7.905,31.66l3.571-2.268L11.1,29h2.707
				C13.922,29.176,14,29.346,14,29.5c0,0.418-0.377,0.897-1.036,1.316l-1.329,0.844l1.329,0.844C14.46,33.455,16.66,34,19,34
				c1.441,0,2.768-0.194,3.912-0.539l-2.599-2.165l2.221-1.851L22.107,29h2.706C24.924,29.174,25,29.343,25,29.5
				c0,0.409-0.348,0.784-0.64,1.027l-0.922,0.769l0.922,0.769C25.814,33.276,28.297,34,31,34c1.339,0,2.577-0.171,3.664-0.471
				l-2.725-2.154l2.629-1.99L34.249,29h2.563C36.924,29.176,37,29.346,37,29.5c0,0.48-0.478,0.914-0.762,1.129l-1.031,0.78
				l1.014,0.802C37.637,33.331,40.171,34,43,34c3.976,0,8-1.374,8-4C51,28.689,49.913,27.559,48,26.829z M36,17c0.552,0,1,0.448,1,1
				s-0.448,1-1,1s-1-0.448-1-1S35.448,17,36,17z M29,14c0.552,0,1,0.448,1,1s-0.448,1-1,1s-1-0.448-1-1S28.448,14,29,14z M25,8
				c0.552,0,1,0.448,1,1s-0.448,1-1,1s-1-0.448-1-1S24.448,8,25,8z M23,15c0.552,0,1,0.448,1,1s-0.448,1-1,1s-1-0.448-1-1
				S22.448,15,23,15z M16,17c0.552,0,1,0.448,1,1s-0.448,1-1,1s-1-0.448-1-1S15.448,17,16,17z M20.189,27h-8.234H9.184H7.5
				c-1.164,0-1.415-0.202-1.419-0.202c-0.033-0.064-0.045-0.302-0.053-0.458C6.022,26.218,6.012,26.096,6,25.974V23h40v3.197V27
				h-8.433h-4.161H22.96H20.189z"/>
			<path d="M47,41H5c-0.552,0-1,0.447-1,1v8c0,0.553,0.448,1,1,1h42c0.552,0,1-0.447,1-1v-8C48,41.447,47.552,41,47,41z M9,48
				c-0.552,0-1-0.448-1-1s0.448-1,1-1s1,0.448,1,1S9.552,48,9,48z M17,46c-0.552,0-1-0.448-1-1s0.448-1,1-1s1,0.448,1,1
				S17.552,46,17,46z M26,48c-0.552,0-1-0.448-1-1s0.448-1,1-1s1,0.448,1,1S26.552,48,26,48z M33,46c-0.552,0-1-0.448-1-1s0.448-1,1-1
				s1,0.448,1,1S33.552,46,33,46z M41,48c-0.552,0-1-0.448-1-1s0.448-1,1-1s1,0.448,1,1S41.552,48,41,48z"/>
		</g>
	</symbol>
</svg>