<?xml version="1.0" standalone="no"?>
<!DOCTYPE svg PUBLIC "-//W3C//DTD SVG 20010904//EN"
 "http://www.w3.org/TR/2001/REC-SVG-20010904/DTD/svg10.dtd">
<svg version="1.0" xmlns="http://www.w3.org/2000/svg"
 width="800.000000pt" height="800.000000pt" viewBox="0 0 800.000000 800.000000"
 preserveAspectRatio="xMidYMid meet">

<g transform="translate(0.000000,800.000000) scale(0.100000,-0.100000)"
fill="#000000" stroke="none">
<path d="M2670 4000 l0 -1330 1330 0 1330 0 0 1330 0 1330 -1330 0 -1330 0 0
-1330z m1510 664 c180 -53 342 -189 424 -355 113 -229 97 -476 -43 -691 -89
-136 -241 -244 -401 -284 -98 -25 -293 -15 -382 18 -103 39 -175 85 -259 168
-266 264 -264 695 6 966 141 142 313 209 510 199 50 -2 115 -12 145 -21z"/>
<path d="M3610 3970 l0 -360 25 0 25 0 0 298 c0 163 3 307 6 320 l6 22 319 0
319 0 0 -75 0 -75 -245 0 -245 0 0 -245 0 -245 35 0 35 0 0 210 0 210 111 0
c109 0 110 0 107 -22 -3 -22 -7 -23 -95 -23 l-93 0 0 -187 0 -188 95 0 95 0 0
169 0 169 95 4 c102 4 127 15 169 72 18 24 21 45 24 167 l4 139 -396 0 -396 0
0 -360z"/>
</g>
</svg>
